<svg width="18" height="16" viewBox="0 0 18 16" fill="none" xmlns="http://www.w3.org/2000/svg">
<path d="M17.8355 8.3975L11.0855 15.1475C10.9789 15.2469 10.8378 15.301 10.6921 15.2984C10.5464 15.2958 10.4073 15.2368 10.3043 15.1337C10.2012 15.0307 10.1422 14.8916 10.1396 14.7459C10.137 14.6002 10.1911 14.4591 10.2905 14.3525L16.0795 8.5625H0.937988C0.788804 8.5625 0.64573 8.50324 0.540241 8.39775C0.434751 8.29226 0.375488 8.14918 0.375488 8C0.375488 7.85081 0.434751 7.70774 0.540241 7.60225C0.64573 7.49676 0.788804 7.4375 0.937988 7.4375H16.0795L10.2905 1.6475C10.1911 1.54087 10.137 1.39983 10.1396 1.25411C10.1422 1.10838 10.2012 0.969343 10.3043 0.866283C10.4073 0.763223 10.5464 0.704189 10.6921 0.701618C10.8378 0.699047 10.9789 0.753139 11.0855 0.852499L17.8355 7.6025C17.9408 7.70797 18 7.85094 18 8C18 8.14906 17.9408 8.29203 17.8355 8.3975Z" fill="#F1F9FE"/>
</svg>
