<svg width="232" height="26" viewBox="0 0 232 26" fill="none" xmlns="http://www.w3.org/2000/svg">
<path d="M6.97543 20.7229C5.71257 20.7229 4.47943 20.4926 3.276 20.032C2.07257 19.5566 1.00286 18.888 0.0668571 18.0263L1.91657 15.7086C2.82286 16.5109 3.692 17.0903 4.524 17.4469C5.37086 17.8034 6.26229 17.9817 7.19829 17.9817C7.852 17.9817 8.41657 17.9074 8.892 17.7589C9.36743 17.5954 9.73143 17.3651 9.984 17.068C10.2514 16.7709 10.3851 16.4217 10.3851 16.0206C10.3851 15.4857 10.192 15.0771 9.80572 14.7949C9.41943 14.4977 8.75829 14.2674 7.82229 14.104L4.72457 13.5691C3.40229 13.3463 2.392 12.8783 1.69371 12.1651C1.01029 11.452 0.668571 10.5309 0.668571 9.40171C0.668571 8.436 0.913714 7.59657 1.404 6.88343C1.90914 6.17028 2.61486 5.628 3.52114 5.25657C4.44229 4.87028 5.53429 4.67714 6.79714 4.67714C7.94114 4.67714 9.07772 4.87028 10.2069 5.25657C11.3509 5.64286 12.3611 6.17771 13.2377 6.86114L11.4994 9.268C9.86514 8.02 8.22343 7.396 6.57429 7.396C5.99486 7.396 5.48971 7.47029 5.05886 7.61886C4.628 7.76743 4.29371 7.97543 4.056 8.24286C3.83314 8.49543 3.72171 8.8 3.72171 9.15657C3.72171 9.632 3.89257 10.0034 4.23429 10.2709C4.576 10.5234 5.148 10.7166 5.95029 10.8503L8.892 11.3406C10.452 11.5931 11.6183 12.0909 12.3909 12.8337C13.1634 13.5617 13.5497 14.5274 13.5497 15.7309C13.5497 16.7411 13.2823 17.6251 12.7474 18.3829C12.2126 19.1257 11.4474 19.7051 10.452 20.1211C9.47143 20.5223 8.31257 20.7229 6.97543 20.7229ZM20.4407 20.6783C19.1481 20.6783 18.1676 20.3886 17.499 19.8091C16.8453 19.2149 16.5184 18.3531 16.5184 17.224V11.4297H14.1338V8.88914H16.5184V5.92514L19.5716 5.23428V8.88914H22.8921V11.4297H19.5716V16.6C19.5716 17.1349 19.6904 17.5211 19.9281 17.7589C20.1658 17.9817 20.5818 18.0931 21.1761 18.0931C21.4733 18.0931 21.7407 18.0783 21.9784 18.0486C22.231 18.004 22.5058 17.9297 22.803 17.8257V20.344C22.491 20.448 22.0973 20.5297 21.6218 20.5891C21.1613 20.6486 20.7676 20.6783 20.4407 20.6783ZM28.0809 20.7006C27.2489 20.7006 26.5134 20.552 25.8746 20.2549C25.2357 19.9429 24.738 19.5194 24.3814 18.9846C24.0249 18.4497 23.8466 17.8331 23.8466 17.1349C23.8466 16.0206 24.2626 15.1589 25.0946 14.5497C25.9414 13.9257 27.1003 13.6137 28.5712 13.6137C29.5814 13.6137 30.5323 13.7697 31.4237 14.0817V13.2349C31.4237 12.5663 31.2157 12.0611 30.7997 11.7194C30.3837 11.3777 29.7746 11.2069 28.9723 11.2069C28.482 11.2069 27.9546 11.2886 27.39 11.452C26.8254 11.6006 26.1717 11.8383 25.4289 12.1651L24.3146 9.91428C25.2357 9.49828 26.1123 9.18628 26.9443 8.97828C27.7912 8.77028 28.638 8.66628 29.4849 8.66628C31.0449 8.66628 32.2557 9.04514 33.1174 9.80286C33.994 10.5457 34.4323 11.6006 34.4323 12.9674V20.5H31.4237V19.6754C30.9483 20.032 30.4357 20.292 29.886 20.4554C29.3363 20.6189 28.7346 20.7006 28.0809 20.7006ZM26.7437 17.068C26.7437 17.5137 26.9369 17.8703 27.3232 18.1377C27.7094 18.3903 28.222 18.5166 28.8609 18.5166C29.366 18.5166 29.834 18.4571 30.2649 18.3383C30.6957 18.2046 31.082 18.0114 31.4237 17.7589V16.0651C31.0523 15.9166 30.666 15.8051 30.2649 15.7309C29.8637 15.6566 29.4329 15.6194 28.9723 15.6194C28.274 15.6194 27.7243 15.7531 27.3232 16.0206C26.9369 16.2731 26.7437 16.6223 26.7437 17.068ZM36.743 20.5V8.88914H39.7962V10.1817C40.1676 9.67657 40.6133 9.29028 41.1333 9.02286C41.6533 8.75543 42.2402 8.62171 42.8939 8.62171C43.4585 8.63657 43.8819 8.72571 44.1642 8.88914V11.5634C43.9413 11.4594 43.6962 11.3851 43.4288 11.3406C43.1613 11.2811 42.8865 11.2514 42.6042 11.2514C42.0099 11.2514 41.4676 11.4 40.9773 11.6971C40.487 11.9943 40.0933 12.4177 39.7962 12.9674V20.5H36.743ZM51.3447 20.6783C50.0521 20.6783 49.0716 20.3886 48.403 19.8091C47.7493 19.2149 47.4224 18.3531 47.4224 17.224V11.4297H45.0379V8.88914H47.4224V5.92514L50.4756 5.23428V8.88914H53.7961V11.4297H50.4756V16.6C50.4756 17.1349 50.5944 17.5211 50.8321 17.7589C51.0699 17.9817 51.4859 18.0931 52.0801 18.0931C52.3773 18.0931 52.6447 18.0783 52.8824 18.0486C53.135 18.004 53.4099 17.9297 53.707 17.8257V20.344C53.395 20.448 53.0013 20.5297 52.5259 20.5891C52.0653 20.6486 51.6716 20.6783 51.3447 20.6783ZM60.8377 20.7229C59.6789 20.7229 58.624 20.4554 57.6732 19.9206C56.7372 19.3857 55.9943 18.6651 55.4446 17.7589C54.8949 16.8526 54.62 15.8349 54.62 14.7057C54.62 13.5766 54.88 12.5589 55.4 11.6526C55.9349 10.7463 56.6555 10.0257 57.5617 9.49086C58.468 8.956 59.4783 8.68857 60.5926 8.68857C61.7069 8.68857 62.6949 8.96343 63.5566 9.51314C64.4183 10.0629 65.0943 10.8057 65.5846 11.7417C66.0897 12.6777 66.3423 13.74 66.3423 14.9286V15.7309H57.74C57.8737 16.1914 58.0892 16.6074 58.3863 16.9789C58.6983 17.3503 59.0772 17.64 59.5229 17.848C59.9835 18.056 60.4737 18.16 60.9937 18.16C61.5137 18.16 61.9892 18.0783 62.42 17.9149C62.8657 17.7514 63.2446 17.5211 63.5566 17.224L65.5623 19.0514C64.8492 19.6309 64.1137 20.0543 63.356 20.3217C62.6132 20.5891 61.7737 20.7229 60.8377 20.7229ZM57.6955 13.5469H63.3337C63.2297 13.0863 63.0366 12.6851 62.7543 12.3434C62.4869 11.9869 62.16 11.712 61.7737 11.5189C61.4023 11.3109 60.9863 11.2069 60.5257 11.2069C60.0503 11.2069 59.6195 11.3034 59.2332 11.4966C58.8469 11.6897 58.52 11.9646 58.2526 12.3211C58 12.6629 57.8143 13.0714 57.6955 13.5469ZM68.2129 20.5V8.88914H71.2661V10.1817C71.6375 9.67657 72.0832 9.29028 72.6032 9.02286C73.1232 8.75543 73.7101 8.62171 74.3638 8.62171C74.9283 8.63657 75.3518 8.72571 75.6341 8.88914V11.5634C75.4112 11.4594 75.1661 11.3851 74.8986 11.3406C74.6312 11.2811 74.3563 11.2514 74.0741 11.2514C73.4798 11.2514 72.9375 11.4 72.4472 11.6971C71.9569 11.9943 71.5632 12.4177 71.2661 12.9674V20.5H68.2129ZM84.6236 20.5L81.1693 4.9H84.4898L86.607 15.4634L89.6378 4.9H92.691L95.7218 15.4411L97.839 4.9H101.048L97.6161 20.5H94.2064L91.131 9.62457L88.011 20.5H84.6236ZM107.52 20.7229C106.361 20.7229 105.307 20.4554 104.356 19.9206C103.42 19.3857 102.677 18.6651 102.127 17.7589C101.577 16.8526 101.303 15.8349 101.303 14.7057C101.303 13.5766 101.563 12.5589 102.083 11.6526C102.617 10.7463 103.338 10.0257 104.244 9.49086C105.151 8.956 106.161 8.68857 107.275 8.68857C108.389 8.68857 109.377 8.96343 110.239 9.51314C111.101 10.0629 111.777 10.8057 112.267 11.7417C112.772 12.6777 113.025 13.74 113.025 14.9286V15.7309H104.423C104.556 16.1914 104.772 16.6074 105.069 16.9789C105.381 17.3503 105.76 17.64 106.205 17.848C106.666 18.056 107.156 18.16 107.676 18.16C108.196 18.16 108.672 18.0783 109.103 17.9149C109.548 17.7514 109.927 17.5211 110.239 17.224L112.245 19.0514C111.532 19.6309 110.796 20.0543 110.039 20.3217C109.296 20.5891 108.456 20.7229 107.52 20.7229ZM104.378 13.5469H110.016C109.912 13.0863 109.719 12.6851 109.437 12.3434C109.169 11.9869 108.843 11.712 108.456 11.5189C108.085 11.3109 107.669 11.2069 107.208 11.2069C106.733 11.2069 106.302 11.3034 105.916 11.4966C105.529 11.6897 105.203 11.9646 104.935 12.3211C104.683 12.6629 104.497 13.0714 104.378 13.5469ZM114.895 20.5V4.9L117.949 4.38743V9.82514C118.87 9.09714 119.954 8.73314 121.202 8.73314C122.302 8.73314 123.297 9.00057 124.189 9.53543C125.08 10.0703 125.786 10.7909 126.306 11.6971C126.841 12.5886 127.108 13.5914 127.108 14.7057C127.108 15.82 126.841 16.8303 126.306 17.7366C125.771 18.628 125.05 19.3411 124.144 19.876C123.238 20.396 122.227 20.656 121.113 20.656C120.534 20.656 119.969 20.5743 119.419 20.4109C118.87 20.2474 118.365 20.0097 117.904 19.6977V20.5H114.895ZM120.712 18.0709C121.351 18.0709 121.923 17.9223 122.428 17.6251C122.948 17.328 123.357 16.9269 123.654 16.4217C123.951 15.9166 124.099 15.3446 124.099 14.7057C124.099 14.0669 123.951 13.4949 123.654 12.9897C123.357 12.4697 122.948 12.0686 122.428 11.7863C121.923 11.4891 121.351 11.3406 120.712 11.3406C120.147 11.3406 119.627 11.4371 119.152 11.6303C118.691 11.8086 118.29 12.0834 117.949 12.4549V16.9789C118.275 17.3206 118.677 17.588 119.152 17.7811C119.642 17.9743 120.162 18.0709 120.712 18.0709ZM139.21 20.7229C137.947 20.7229 136.714 20.4926 135.51 20.032C134.307 19.5566 133.237 18.888 132.301 18.0263L134.151 15.7086C135.057 16.5109 135.926 17.0903 136.758 17.4469C137.605 17.8034 138.497 17.9817 139.433 17.9817C140.086 17.9817 140.651 17.9074 141.126 17.7589C141.602 17.5954 141.966 17.3651 142.218 17.068C142.486 16.7709 142.62 16.4217 142.62 16.0206C142.62 15.4857 142.426 15.0771 142.04 14.7949C141.654 14.4977 140.993 14.2674 140.057 14.104L136.959 13.5691C135.637 13.3463 134.626 12.8783 133.928 12.1651C133.245 11.452 132.903 10.5309 132.903 9.40171C132.903 8.436 133.148 7.59657 133.638 6.88343C134.144 6.17028 134.849 5.628 135.756 5.25657C136.677 4.87028 137.769 4.67714 139.032 4.67714C140.176 4.67714 141.312 4.87028 142.441 5.25657C143.585 5.64286 144.596 6.17771 145.472 6.86114L143.734 9.268C142.1 8.02 140.458 7.396 138.809 7.396C138.229 7.396 137.724 7.47029 137.293 7.61886C136.862 7.76743 136.528 7.97543 136.29 8.24286C136.068 8.49543 135.956 8.8 135.956 9.15657C135.956 9.632 136.127 10.0034 136.469 10.2709C136.81 10.5234 137.382 10.7166 138.185 10.8503L141.126 11.3406C142.686 11.5931 143.853 12.0909 144.625 12.8337C145.398 13.5617 145.784 14.5274 145.784 15.7309C145.784 16.7411 145.517 17.6251 144.982 18.3829C144.447 19.1257 143.682 19.7051 142.686 20.1211C141.706 20.5223 140.547 20.7229 139.21 20.7229ZM152.675 20.6783C151.383 20.6783 150.402 20.3886 149.733 19.8091C149.08 19.2149 148.753 18.3531 148.753 17.224V11.4297H146.368V8.88914H148.753V5.92514L151.806 5.23428V8.88914H155.127V11.4297H151.806V16.6C151.806 17.1349 151.925 17.5211 152.163 17.7589C152.4 17.9817 152.816 18.0931 153.411 18.0931C153.708 18.0931 153.975 18.0783 154.213 18.0486C154.465 18.004 154.74 17.9297 155.037 17.8257V20.344C154.725 20.448 154.332 20.5297 153.856 20.5891C153.396 20.6486 153.002 20.6783 152.675 20.6783ZM161.118 20.7229C160.226 20.7229 159.431 20.5297 158.733 20.1434C158.05 19.7423 157.507 19.1926 157.106 18.4943C156.72 17.796 156.527 16.9937 156.527 16.0874V8.88914H159.58V15.6417C159.58 16.3846 159.795 16.9789 160.226 17.4246C160.672 17.8703 161.266 18.0931 162.009 18.0931C162.514 18.0931 162.967 17.9966 163.368 17.8034C163.784 17.5954 164.126 17.3057 164.394 16.9343V8.88914H167.447V20.5H164.394V19.564C163.502 20.3366 162.41 20.7229 161.118 20.7229ZM175.197 20.656C174.098 20.656 173.102 20.3886 172.211 19.8537C171.319 19.3189 170.606 18.6057 170.071 17.7143C169.551 16.808 169.291 15.7977 169.291 14.6834C169.291 13.5691 169.551 12.5663 170.071 11.6749C170.606 10.7686 171.327 10.0554 172.233 9.53543C173.139 9.00057 174.157 8.73314 175.286 8.73314C175.866 8.73314 176.423 8.81486 176.958 8.97828C177.492 9.12686 177.99 9.34971 178.451 9.64686V4.9L181.504 4.38743V20.5H178.495V19.5417C177.544 20.2846 176.445 20.656 175.197 20.656ZM175.687 18.0486C176.252 18.0486 176.764 17.9594 177.225 17.7811C177.7 17.588 178.109 17.3057 178.451 16.9343V12.4103C178.109 12.0686 177.7 11.8011 177.225 11.608C176.75 11.4149 176.237 11.3183 175.687 11.3183C175.048 11.3183 174.469 11.4669 173.949 11.764C173.444 12.0463 173.043 12.4474 172.746 12.9674C172.448 13.4726 172.3 14.0446 172.3 14.6834C172.3 15.3223 172.448 15.8943 172.746 16.3994C173.043 16.9046 173.444 17.3057 173.949 17.6029C174.469 17.9 175.048 18.0486 175.687 18.0486ZM183.885 20.5V8.88914H186.939V20.5H183.885ZM185.401 7.50743C184.925 7.50743 184.517 7.33657 184.175 6.99486C183.833 6.65314 183.663 6.24457 183.663 5.76914C183.663 5.27886 183.833 4.87028 184.175 4.54343C184.517 4.20171 184.925 4.03086 185.401 4.03086C185.891 4.03086 186.3 4.20171 186.627 4.54343C186.968 4.87028 187.139 5.27886 187.139 5.76914C187.139 6.24457 186.968 6.65314 186.627 6.99486C186.3 7.33657 185.891 7.50743 185.401 7.50743ZM194.987 20.7229C193.828 20.7229 192.78 20.4554 191.844 19.9206C190.908 19.3857 190.166 18.6651 189.616 17.7589C189.066 16.8526 188.791 15.8349 188.791 14.7057C188.791 13.5766 189.059 12.5589 189.594 11.6526C190.143 10.7314 190.886 10.0034 191.822 9.46857C192.773 8.93371 193.828 8.66628 194.987 8.66628C196.146 8.66628 197.193 8.93371 198.129 9.46857C199.08 10.0034 199.823 10.7314 200.358 11.6526C200.907 12.5589 201.182 13.5766 201.182 14.7057C201.182 15.8349 200.907 16.8526 200.358 17.7589C199.823 18.6651 199.087 19.3857 198.151 19.9206C197.215 20.4554 196.16 20.7229 194.987 20.7229ZM194.987 18.0709C195.596 18.0709 196.138 17.9223 196.614 17.6251C197.104 17.328 197.49 16.9269 197.772 16.4217C198.07 15.9017 198.218 15.3297 198.218 14.7057C198.218 14.0669 198.07 13.4949 197.772 12.9897C197.49 12.4846 197.104 12.0834 196.614 11.7863C196.138 11.4743 195.596 11.3183 194.987 11.3183C194.392 11.3183 193.85 11.4743 193.36 11.7863C192.87 12.0834 192.483 12.4846 192.201 12.9897C191.919 13.4949 191.778 14.0669 191.778 14.7057C191.778 15.3297 191.919 15.9017 192.201 16.4217C192.483 16.9269 192.87 17.328 193.36 17.6251C193.85 17.9223 194.392 18.0709 194.987 18.0709Z" fill="#124B68"/>
<g clip-path="url(#clip0_8244_706)">
<path d="M218.405 9.18288L223.282 7.28833L230.966 13.3579L226.019 15.2246L218.405 9.18288Z" fill="#0C6998"/>
<path d="M230.966 13.358L226.019 15.2252L230.216 12.7662L230.966 13.358Z" fill="#124B68"/>
<path d="M230.17 17.9738L230.966 13.358L216.651 18.761L220.021 21.8162C220.257 22.0296 220.592 22.0923 220.889 21.9784L229.642 18.6167C229.919 18.5104 230.119 18.2661 230.17 17.9738Z" fill="#0C78AB"/>
<path d="M223.703 14.8665L218.826 16.7611L211.143 10.6915L216.09 8.8248L223.703 14.8665Z" fill="#C59B2D"/>
<path d="M211.143 10.6915L216.09 8.82432L211.892 11.2833L211.143 10.6915Z" fill="#885920"/>
<path d="M211.939 6.07578L211.143 10.6916L225.457 5.28856L222.087 2.23333C221.852 2.01994 221.516 1.95721 221.22 2.07112L212.467 5.4328C212.19 5.53916 211.989 5.78342 211.939 6.07578Z" fill="#AA7A24"/>
</g>
<defs>
<clipPath id="clip0_8244_706">
<rect width="20.4228" height="21.1522" fill="white" transform="translate(210.755 1.32953)"/>
</clipPath>
</defs>
</svg>
