<svg width="144" height="144" viewBox="0 0 144 144" fill="none" xmlns="http://www.w3.org/2000/svg">
<path d="M42 72H102V78H42V72Z" fill="#90A4AE" fill-opacity="0.7"/>
<path d="M72 21C69.6131 21 67.3239 21.9482 65.636 23.636C63.9482 25.3239 63 27.6131 63 30C63 32.3869 63.9482 34.6761 65.636 36.364C67.3239 38.0518 69.6131 39 72 39C74.3869 39 76.6761 38.0518 78.364 36.364C80.0518 34.6761 81 32.3869 81 30C81 27.6131 80.0518 25.3239 78.364 23.636C76.6761 21.9482 74.3869 21 72 21ZM21 30C18.6131 30 16.3239 30.9482 14.636 32.636C12.9482 34.3239 12 36.6131 12 39C12 41.3869 12.9482 43.6761 14.636 45.364C16.3239 47.0518 18.6131 48 21 48C23.3869 48 25.6761 47.0518 27.364 45.364C29.0518 43.6761 30 41.3869 30 39C30 36.6131 29.0518 34.3239 27.364 32.636C25.6761 30.9482 23.3869 30 21 30Z" fill="#FFB74D" fill-opacity="0.7"/>
<path d="M30 111H21C9.423 111 0 101.58 0 90V66H6V90C6 98.271 12.729 105 21 105H30V111Z" fill="#90A4AE" fill-opacity="0.7"/>
<path d="M87 72H57V60C57 51.717 63.717 45 72 45C80.283 45 87 51.717 87 60V72Z" fill="#2196F3" fill-opacity="0.7"/>
<path d="M42 84H30C30 84 30 63.594 30 63C30 58.029 25.971 54 21 54C16.029 54 12 58.029 12 63C12 63.744 12.03 90.747 12.03 90.747C12.42 95.412 16.32 99 21 99H39L42 123H51V93C51 88.038 46.962 84 42 84Z" fill="#4FC3F7" fill-opacity="0.7"/>
<path d="M123 30C120.613 30 118.324 30.9482 116.636 32.636C114.948 34.3239 114 36.6131 114 39C114 41.3869 114.948 43.6761 116.636 45.364C118.324 47.0518 120.613 48 123 48C125.387 48 127.676 47.0518 129.364 45.364C131.052 43.6761 132 41.3869 132 39C132 36.6131 131.052 34.3239 129.364 32.636C127.676 30.9482 125.387 30 123 30Z" fill="#FFB74D" fill-opacity="0.7"/>
<path d="M114 111H123C134.577 111 144 101.58 144 90V66H138V90C138 98.271 131.271 105 123 105H114V111Z" fill="#90A4AE" fill-opacity="0.7"/>
<path d="M102 84H114C114 84 114 63.594 114 63C114 58.029 118.029 54 123 54C127.971 54 132 58.029 132 63C132 63.744 131.97 90.747 131.97 90.747C131.58 95.412 127.68 99 123 99H105L102 123H93V93C93 88.038 97.038 84 102 84Z" fill="#4FC3F7" fill-opacity="0.7"/>
</svg>
