<svg width="71" height="70" viewBox="0 0 71 70" fill="none" xmlns="http://www.w3.org/2000/svg">
<g clip-path="url(#clip0_13_301)">
<path d="M10.4666 5.59998C8.16364 5.59998 6.2666 7.49702 6.2666 9.79998V58.8C6.2666 61.1029 8.16364 63 10.4666 63H55.7834L61.0061 68.1789C63.2461 70.4189 66.7471 70.5589 69.1271 68.1789C71.3671 65.9389 71.0872 62.3005 69.1271 60.0605L65.0666 56.0547V9.79998C65.0666 7.49702 63.1696 5.59998 60.8666 5.59998H10.4666ZM10.4666 8.39998H60.8666C61.6576 8.39998 62.2666 9.00893 62.2666 9.79998V53.2902L49.2482 40.4441C49.0746 40.2733 48.8627 40.1516 48.6275 40.0886L40.2275 37.8465C39.7375 37.7177 39.2214 37.8585 38.8686 38.2183C38.5158 38.5767 38.3814 39.0984 38.5186 39.5828L40.9002 47.9828C40.966 48.2152 41.0889 48.4245 41.2611 48.5953L52.9615 60.2H10.4666C9.67556 60.2 9.0666 59.591 9.0666 58.8V9.79998C9.0666 9.00893 9.67556 8.39998 10.4666 8.39998ZM18.8666 18.2C18.6811 18.1974 18.4969 18.2316 18.3247 18.3008C18.1526 18.37 17.9959 18.4727 17.8638 18.603C17.7317 18.7332 17.6268 18.8884 17.5551 19.0596C17.4835 19.2308 17.4467 19.4144 17.4467 19.6C17.4467 19.7855 17.4835 19.9692 17.5551 20.1404C17.6268 20.3115 17.7317 20.4667 17.8638 20.597C17.9959 20.7273 18.1526 20.83 18.3247 20.8991C18.4969 20.9683 18.6811 21.0026 18.8666 21H52.4666C52.6521 21.0026 52.8363 20.9683 53.0085 20.8991C53.1806 20.83 53.3373 20.7273 53.4694 20.597C53.6015 20.4667 53.7065 20.3115 53.7781 20.1404C53.8497 19.9692 53.8865 19.7855 53.8865 19.6C53.8865 19.4144 53.8497 19.2308 53.7781 19.0596C53.7065 18.8884 53.6015 18.7332 53.4694 18.603C53.3373 18.4727 53.1806 18.37 53.0085 18.3008C52.8363 18.2316 52.6521 18.1974 52.4666 18.2H18.8666ZM18.8666 28C18.6811 27.9974 18.4969 28.0316 18.3247 28.1008C18.1526 28.17 17.9959 28.2727 17.8638 28.403C17.7317 28.5332 17.6268 28.6884 17.5551 28.8596C17.4835 29.0308 17.4467 29.2144 17.4467 29.4C17.4467 29.5855 17.4835 29.7692 17.5551 29.9404C17.6268 30.1115 17.7317 30.2667 17.8638 30.397C17.9959 30.5273 18.1526 30.63 18.3247 30.6991C18.4969 30.7683 18.6811 30.8026 18.8666 30.8H52.4666C52.6521 30.8026 52.8363 30.7683 53.0085 30.6991C53.1806 30.63 53.3373 30.5273 53.4694 30.397C53.6015 30.2667 53.7065 30.1115 53.7781 29.9404C53.8497 29.7692 53.8865 29.5855 53.8865 29.4C53.8865 29.2144 53.8497 29.0308 53.7781 28.8596C53.7065 28.6884 53.6015 28.5332 53.4694 28.403C53.3373 28.2727 53.1806 28.17 53.0085 28.1008C52.8363 28.0316 52.6521 27.9974 52.4666 28H18.8666ZM18.8666 37.8C18.6811 37.7974 18.4969 37.8316 18.3247 37.9008C18.1526 37.97 17.9959 38.0727 17.8638 38.2029C17.7317 38.3332 17.6268 38.4884 17.5551 38.6596C17.4835 38.8308 17.4467 39.0144 17.4467 39.2C17.4467 39.3855 17.4835 39.5692 17.5551 39.7404C17.6268 39.9115 17.7317 40.0667 17.8638 40.197C17.9959 40.3273 18.1526 40.43 18.3247 40.4991C18.4969 40.5683 18.6811 40.6026 18.8666 40.6H32.8666C33.0521 40.6026 33.2363 40.5683 33.4085 40.4991C33.5806 40.43 33.7373 40.3273 33.8694 40.197C34.0015 40.0667 34.1065 39.9115 34.1781 39.7404C34.2497 39.5692 34.2865 39.3855 34.2865 39.2C34.2865 39.0144 34.2497 38.8308 34.1781 38.6596C34.1065 38.4884 34.0015 38.3332 33.8694 38.2029C33.7373 38.0727 33.5806 37.97 33.4085 37.9008C33.2363 37.8316 33.0521 37.7974 32.8666 37.8H18.8666ZM47.5475 42.6972L66.1029 61.1215L61.9248 65.3023L43.4951 46.8644L43.4486 46.7031L47.5475 42.6972Z" fill="#0C78AB"/>
</g>
<defs>
<clipPath id="clip0_13_301">
<rect width="70" height="70" fill="white" transform="translate(0.666626)"/>
</clipPath>
</defs>
</svg>
