<svg width="71" height="70" viewBox="0 0 71 70" fill="none" xmlns="http://www.w3.org/2000/svg">
<path d="M10.1333 5.59998C7.83039 5.59998 5.93335 7.49702 5.93335 9.79998V16.8V60.2C5.93335 62.5029 7.83039 64.4 10.1333 64.4H60.5333C62.8363 64.4 64.7333 62.5029 64.7333 60.2V15.4V9.79998C64.7333 7.49702 62.8363 5.59998 60.5333 5.59998H10.1333ZM10.1333 8.39998H60.5333C61.3244 8.39998 61.9333 9.00893 61.9333 9.79998V14H8.73335V9.79998C8.73335 9.00893 9.34231 8.39998 10.1333 8.39998ZM11.5333 9.79998C11.162 9.79998 10.806 9.94748 10.5434 10.21C10.2808 10.4726 10.1333 10.8287 10.1333 11.2C10.1333 11.5713 10.2808 11.9274 10.5434 12.1899C10.806 12.4525 11.162 12.6 11.5333 12.6C11.9047 12.6 12.2607 12.4525 12.5233 12.1899C12.7858 11.9274 12.9333 11.5713 12.9333 11.2C12.9333 10.8287 12.7858 10.4726 12.5233 10.21C12.2607 9.94748 11.9047 9.79998 11.5333 9.79998ZM15.7333 9.79998C15.362 9.79998 15.006 9.94748 14.7434 10.21C14.4808 10.4726 14.3333 10.8287 14.3333 11.2C14.3333 11.5713 14.4808 11.9274 14.7434 12.1899C15.006 12.4525 15.362 12.6 15.7333 12.6C16.1047 12.6 16.4607 12.4525 16.7233 12.1899C16.9858 11.9274 17.1333 11.5713 17.1333 11.2C17.1333 10.8287 16.9858 10.4726 16.7233 10.21C16.4607 9.94748 16.1047 9.79998 15.7333 9.79998ZM19.9333 9.79998C19.562 9.79998 19.206 9.94748 18.9434 10.21C18.6808 10.4726 18.5333 10.8287 18.5333 11.2C18.5333 11.5713 18.6808 11.9274 18.9434 12.1899C19.206 12.4525 19.562 12.6 19.9333 12.6C20.3047 12.6 20.6607 12.4525 20.9233 12.1899C21.1858 11.9274 21.3333 11.5713 21.3333 11.2C21.3333 10.8287 21.1858 10.4726 20.9233 10.21C20.6607 9.94748 20.3047 9.79998 19.9333 9.79998ZM8.73335 16.8H61.9333V60.2C61.9333 60.991 61.3244 61.6 60.5333 61.6H10.1333C9.34231 61.6 8.73335 60.991 8.73335 60.2V16.8ZM43.6431 22.3289C41.5267 22.3504 39.4177 23.1655 37.8025 24.7816C35.3933 27.1908 34.7587 30.6998 35.8884 33.6929L33.8486 35.7355L26.8623 28.7492V26.7695L21.913 23.8L19.9333 25.7797L22.9029 30.7289H24.8826L31.8689 37.7152L19.5587 50.0254C18.1923 51.3918 18.1923 53.6068 19.5587 54.9746C20.9265 56.341 23.1402 56.341 24.508 54.9746L40.8732 38.6093C43.844 39.6871 47.2985 39.0446 49.6806 36.6625C52.265 34.0781 52.804 30.2292 51.3158 27.1086L45.7212 32.7004L42.7517 31.7105L41.7619 28.741L47.3564 23.1465C46.1856 22.5879 44.913 22.316 43.6431 22.3289ZM42.213 42.1203L38.2537 46.0797L47.3537 55.1797C48.4471 56.2731 50.2196 56.2731 51.313 55.1797C52.4064 54.0863 52.4064 52.3137 51.313 51.2203L42.213 42.1203Z" fill="#0C78AB"/>
</svg>
