<svg width="70" height="70" viewBox="0 0 70 70" fill="none" xmlns="http://www.w3.org/2000/svg">
<path d="M9.8 5.59998C7.49704 5.59998 5.6 7.49702 5.6 9.79998V60.3722C5.6 62.6752 7.49704 64.5722 9.8 64.5722L43.9004 64.575C52.1784 64.575 58.677 64.5777 58.677 64.5777C58.9518 64.5777 59.2206 64.4967 59.4498 64.3449C59.679 64.1931 59.8584 63.9772 59.9657 63.7241C60.0731 63.471 60.1035 63.1919 60.0532 62.9216C60.003 62.6514 59.8743 62.4019 59.6832 62.2043L50.9906 53.2109C50.8026 53.0157 50.562 52.8792 50.298 52.818C50.0339 52.7569 49.7578 52.7737 49.5031 52.8664C48.6281 53.1852 47.6551 53.2928 46.6129 53.1179C44.3355 52.734 42.4362 50.8103 42.0738 48.5269C41.4609 44.6591 44.6446 41.4685 48.5105 42.0711C50.7995 42.4279 52.729 44.329 53.1152 46.6101C53.2918 47.6502 53.1843 48.6287 52.8664 49.5086C52.7762 49.7588 52.7592 50.0295 52.8173 50.2891C52.8754 50.5487 53.0063 50.7863 53.1945 50.9742C53.1205 50.9002 53.3454 51.1306 53.5937 51.3871C53.8421 51.6436 54.1893 52.0014 54.6027 52.4289C55.4295 53.2837 56.5195 54.4121 57.6051 55.5351C59.7762 57.7812 61.9309 60.0086 61.9309 60.0086C62.1246 60.2088 62.3737 60.3466 62.6462 60.4045C62.9188 60.4623 63.2024 60.4375 63.4608 60.3333C63.7192 60.2291 63.9406 60.0501 64.0967 59.8194C64.2528 59.5886 64.3365 59.3165 64.3371 59.0379L64.3344 9.80271C64.3344 7.50047 62.4382 5.60271 60.1344 5.60271L41.9371 5.59998C41.7526 5.60001 41.57 5.6365 41.3996 5.70736C41.2293 5.77822 41.0746 5.88204 40.9445 6.01287L27.9918 19.0285C27.804 19.2167 27.6737 19.4545 27.6161 19.714C27.5584 19.9735 27.5759 20.2441 27.6664 20.4941C27.9846 21.3705 28.091 22.3478 27.9152 23.3898C27.5301 25.6685 25.6036 27.5672 23.3187 27.9261C19.4534 28.5345 16.2685 25.3532 16.8711 21.4894C17.2278 19.202 19.1295 17.2709 21.4102 16.8847C22.4503 16.7082 23.428 16.816 24.3059 17.1336C24.5552 17.2239 24.8251 17.2415 25.0841 17.1843C25.3431 17.1272 25.5805 16.9977 25.7687 16.8109C25.8964 16.6846 26.3744 16.2 27.2016 15.3672C28.0287 14.5343 29.1181 13.4365 30.2039 12.3429C32.3755 10.1557 34.5297 7.98708 34.5297 7.98708C34.7246 7.79096 34.8571 7.54151 34.9104 7.2702C34.9637 6.99889 34.9356 6.71786 34.8294 6.46255C34.7232 6.20723 34.5439 5.98907 34.3139 5.83556C34.0839 5.68206 33.8136 5.60008 33.5371 5.59998H9.8ZM9.8 8.39998H30.1738C29.3964 9.18308 29.1982 9.3822 28.216 10.3715C27.1302 11.465 26.0407 12.563 25.2137 13.3957C24.6263 13.9871 24.4251 14.1883 24.2074 14.4074C23.1556 14.169 22.0891 13.9284 20.9426 14.123C17.4356 14.7168 14.6516 17.546 14.1039 21.0574C13.2253 26.6913 18.1184 31.5802 23.7535 30.6933C27.2619 30.1422 30.0849 27.358 30.677 23.8547C30.8704 22.7078 30.6297 21.6405 30.3898 20.5871L42.5195 8.39998L60.1344 8.40271C60.9246 8.40271 61.5344 9.01375 61.5344 9.80271L61.5371 55.5734C60.7672 54.7768 60.5808 54.5847 59.6176 53.5883C58.5319 52.4651 57.4423 51.3372 56.6152 50.482C56.2017 50.0544 55.8552 49.6946 55.6062 49.4375C55.5969 49.4278 55.5987 49.4302 55.5898 49.4211C55.8308 48.3651 56.0724 47.294 55.8769 46.1426C55.2832 42.636 52.4552 39.8515 48.9426 39.3039C43.3054 38.4252 38.4159 43.3263 39.3094 48.9644C39.8654 52.4686 42.6462 55.2865 46.148 55.8769C46.148 55.8778 46.148 55.8787 46.148 55.8797C47.2859 56.0705 48.3482 55.8291 49.3965 55.5926L55.3793 61.7777C53.3089 61.7773 50.3313 61.775 43.9004 61.775L9.8 61.7722C9.00896 61.7722 8.4 61.1633 8.4 60.3722V9.79998C8.4 9.00893 9.00896 8.39998 9.8 8.39998ZM47.6 14C42.9777 14 39.2 17.7777 39.2 22.4C39.2 23.0588 39.3856 23.6688 39.5309 24.2894L24.2895 39.5308C23.6694 39.3849 23.0613 39.2 22.4 39.2C17.7777 39.2 14 42.9777 14 47.6C14 52.2222 17.7777 56 22.4 56C27.0223 56 30.8 52.2222 30.8 47.6C30.8 46.9396 30.6141 46.3319 30.4691 45.7133L45.7105 30.4718C46.3301 30.6163 46.9374 30.8 47.6 30.8C52.2223 30.8 56 27.0223 56 22.4C56 17.7777 52.2223 14 47.6 14ZM47.6 16.8C50.7085 16.8 53.2 19.2915 53.2 22.4C53.2 25.5085 50.7085 28 47.6 28C46.9267 28 46.2841 27.8833 45.6832 27.6691C45.4341 27.5806 45.165 27.5645 44.9071 27.6226C44.6492 27.6806 44.4129 27.8105 44.2258 27.9972L27.9945 44.2285C27.8063 44.4164 27.6754 44.654 27.6173 44.9136C27.5592 45.1731 27.5762 45.4439 27.6664 45.6941C27.8812 46.2881 28 46.9267 28 47.6C28 50.7085 25.5085 53.2 22.4 53.2C19.2915 53.2 16.8 50.7085 16.8 47.6C16.8 44.4915 19.2915 42 22.4 42C23.0733 42 23.7131 42.1181 24.3059 42.3336C24.5558 42.4241 24.8264 42.4415 25.086 42.3839C25.3455 42.3263 25.5833 42.196 25.7715 42.0082L42.0055 25.7742C42.1937 25.5863 42.3246 25.3487 42.3827 25.0891C42.4408 24.8295 42.4238 24.5588 42.3336 24.3086C42.1176 23.7109 42 23.0715 42 22.4C42 19.2915 44.4915 16.8 47.6 16.8ZM22.4 19.6C21.6574 19.6 20.9452 19.895 20.4201 20.4201C19.895 20.9452 19.6 21.6574 19.6 22.4C19.6 23.1426 19.895 23.8548 20.4201 24.3799C20.9452 24.905 21.6574 25.2 22.4 25.2C23.1426 25.2 23.8548 24.905 24.3799 24.3799C24.905 23.8548 25.2 23.1426 25.2 22.4C25.2 21.6574 24.905 20.9452 24.3799 20.4201C23.8548 19.895 23.1426 19.6 22.4 19.6ZM47.6 19.6C46.8574 19.6 46.1452 19.895 45.6201 20.4201C45.095 20.9452 44.8 21.6574 44.8 22.4C44.8 23.1426 45.095 23.8548 45.6201 24.3799C46.1452 24.905 46.8574 25.2 47.6 25.2C48.3426 25.2 49.0548 24.905 49.5799 24.3799C50.105 23.8548 50.4 23.1426 50.4 22.4C50.4 21.6574 50.105 20.9452 49.5799 20.4201C49.0548 19.895 48.3426 19.6 47.6 19.6ZM22.4 44.8C21.6574 44.8 20.9452 45.095 20.4201 45.6201C19.895 46.1452 19.6 46.8574 19.6 47.6C19.6 48.3426 19.895 49.0548 20.4201 49.5799C20.9452 50.105 21.6574 50.4 22.4 50.4C23.1426 50.4 23.8548 50.105 24.3799 49.5799C24.905 49.0548 25.2 48.3426 25.2 47.6C25.2 46.8574 24.905 46.1452 24.3799 45.6201C23.8548 45.095 23.1426 44.8 22.4 44.8ZM47.6 44.8C46.8574 44.8 46.1452 45.095 45.6201 45.6201C45.095 46.1452 44.8 46.8574 44.8 47.6C44.8 48.3426 45.095 49.0548 45.6201 49.5799C46.1452 50.105 46.8574 50.4 47.6 50.4C48.3426 50.4 49.0548 50.105 49.5799 49.5799C50.105 49.0548 50.4 48.3426 50.4 47.6C50.4 46.8574 50.105 46.1452 49.5799 45.6201C49.0548 45.095 48.3426 44.8 47.6 44.8Z" fill="#0C78AB"/>
</svg>
