<svg width="71" height="70" viewBox="0 0 71 70" fill="none" xmlns="http://www.w3.org/2000/svg">
<g clip-path="url(#clip0_13_320)">
<path d="M41.2666 6.34375C33.9658 6.34375 27.7862 10.7133 24.8166 16.8875C23.2362 15.7992 21.4041 15.0062 19.3479 15.0062C14.1307 15.0062 9.96897 19.1352 9.67913 24.2812C4.46194 26.1625 0.666626 31.0297 0.666626 36.8813C0.666626 44.3406 6.726 50.4 14.1854 50.4H25.8666C26.3698 50.4055 26.8401 50.143 27.0971 49.7055C27.3487 49.268 27.3487 48.732 27.0971 48.2945C26.8401 47.857 26.3698 47.5945 25.8666 47.6H14.1854C8.23538 47.6 3.46663 42.8258 3.46663 36.8813C3.46663 31.932 6.80256 27.7648 11.3416 26.5125C11.9596 26.332 12.3752 25.7523 12.3479 25.1125C12.3424 24.9156 12.3479 24.8172 12.3479 24.8062C12.3479 20.918 15.4596 17.8062 19.3479 17.8062C21.2948 17.8062 23.0666 18.5883 24.3354 19.8625C24.669 20.1852 25.1448 20.3273 25.5987 20.2289C26.058 20.1305 26.4354 19.8133 26.6104 19.3812C28.8143 13.4313 34.5346 9.14375 41.2666 9.14375C49.9072 9.14375 56.8854 16.1273 56.8854 24.7625C56.8854 25.4023 56.8362 26.0312 56.7541 26.6875C56.7049 27.0812 56.8252 27.475 57.0822 27.7758C57.3393 28.0766 57.7166 28.2516 58.1104 28.2625H58.1979C63.5518 28.2625 67.8666 32.5773 67.8666 37.9312C67.8666 43.2852 63.5518 47.6 58.1979 47.6H45.4666C44.9635 47.5945 44.4932 47.857 44.2362 48.2945C43.9846 48.732 43.9846 49.268 44.2362 49.7055C44.4932 50.143 44.9635 50.4055 45.4666 50.4H58.1979C65.0666 50.4 70.6666 44.8 70.6666 37.9312C70.6666 31.5602 65.7776 26.4961 59.5979 25.7687C59.6198 25.4297 59.6854 25.1125 59.6854 24.7625C59.6854 14.6125 51.4166 6.34375 41.2666 6.34375ZM35.6666 30.2312L34.6604 31.1938L27.6604 38.1938C27.1026 38.7516 27.1026 39.6484 27.6604 40.2062C28.2182 40.7641 29.1151 40.7641 29.6729 40.2062L34.2666 35.6125V60.2C34.2612 60.7031 34.5237 61.1734 34.9612 61.4305C35.3987 61.682 35.9346 61.682 36.3721 61.4305C36.8096 61.1734 37.0721 60.7031 37.0666 60.2V35.6125L41.6604 40.2062C42.2182 40.7641 43.1151 40.7641 43.6729 40.2062C44.2307 39.6484 44.2307 38.7516 43.6729 38.1938L36.6729 31.1938L35.6666 30.2312Z" fill="#0C78AB"/>
</g>
<defs>
<clipPath id="clip0_13_320">
<rect width="70" height="70" fill="white" transform="translate(0.666626)"/>
</clipPath>
</defs>
</svg>
