<svg width="71" height="70" viewBox="0 0 71 70" fill="none" xmlns="http://www.w3.org/2000/svg">
<path d="M43.9959 4.55002C43.6459 4.61018 43.3341 4.79612 43.1209 5.07502L16.4334 38.325C16.0943 38.7461 16.0287 39.3203 16.2638 39.8071C16.499 40.2938 16.9912 40.6 17.5271 40.6H32.1834L25.1834 63.6125C24.9263 64.2742 25.2052 65.018 25.8287 65.3516C26.4521 65.6852 27.2232 65.5047 27.6334 64.925L54.2334 31.675C54.5724 31.2539 54.638 30.6797 54.4029 30.193C54.1677 29.7063 53.6755 29.4 53.1396 29.4H39.0084L45.5271 6.34377C45.6529 5.91174 45.5654 5.44143 45.2865 5.08596C45.0076 4.73049 44.5756 4.53362 44.1271 4.55002C44.0834 4.55002 44.0396 4.55002 43.9959 4.55002ZM40.9771 12.2063L35.7709 30.4063C35.6451 30.8328 35.7326 31.2922 35.9951 31.6422C36.2631 31.9977 36.6841 32.2055 37.1271 32.2H50.2084L29.9959 57.5313L35.4646 39.5938C35.5904 39.1672 35.5029 38.7078 35.2404 38.3578C34.9724 38.0024 34.5513 37.7946 34.1084 37.8H20.4584L40.9771 12.2063Z" fill="#0C78AB"/>
</svg>
