<svg width="70" height="70" viewBox="0 0 70 70" fill="none" xmlns="http://www.w3.org/2000/svg">
<path d="M5.6 5.59998C4.0558 5.59998 2.8 6.85578 2.8 8.39998V49C2.8 50.5442 4.0558 51.8 5.6 51.8H64.4C65.9442 51.8 67.2 50.5442 67.2 49V8.39998C67.2 6.85578 65.9442 5.59998 64.4 5.59998H5.6ZM5.6 8.39998H64.4L64.4027 40.6H5.6V8.39998ZM39.1289 12.5836C38.8545 12.5991 38.5908 12.6949 38.3705 12.8593C38.1502 13.0236 37.9832 13.2492 37.8902 13.5078L29.4902 35.9078C29.4176 36.0814 29.3807 36.2679 29.3818 36.4561C29.3828 36.6443 29.4218 36.8304 29.4964 37.0032C29.571 37.176 29.6797 37.3319 29.8159 37.4618C29.9521 37.5916 30.1132 37.6927 30.2893 37.7589C30.4655 37.8251 30.6532 37.8551 30.8413 37.8471C31.0293 37.8391 31.2138 37.7933 31.3838 37.7124C31.5537 37.6315 31.7056 37.5172 31.8303 37.3762C31.955 37.2353 32.0501 37.0707 32.1098 36.8922L40.5098 14.4922C40.5953 14.2738 40.6246 14.0375 40.595 13.8049C40.5654 13.5723 40.4779 13.3508 40.3404 13.1609C40.203 12.9709 40.02 12.8185 39.8083 12.7176C39.5967 12.6167 39.363 12.5707 39.1289 12.5836ZM44.8027 16.7836C44.5358 16.7804 44.2734 16.8536 44.0467 16.9946C43.82 17.1355 43.6383 17.3384 43.523 17.5792C43.4078 17.8201 43.3638 18.0889 43.3963 18.3539C43.4287 18.6189 43.5363 18.8691 43.7063 19.075L48.6063 25.2L43.7063 31.325C43.5913 31.4686 43.5057 31.6335 43.4545 31.8102C43.4033 31.9869 43.3873 32.1719 43.4076 32.3548C43.4279 32.5376 43.484 32.7147 43.5728 32.8758C43.6615 33.037 43.7811 33.1791 43.9248 33.294C44.0684 33.409 44.2333 33.4945 44.41 33.5456C44.5867 33.5968 44.7718 33.6127 44.9546 33.5924C45.1375 33.572 45.3145 33.5159 45.4757 33.4271C45.6368 33.3383 45.7789 33.2187 45.8938 33.075L51.4938 26.075C51.6925 25.8267 51.8008 25.5181 51.8008 25.2C51.8008 24.8819 51.6925 24.5733 51.4938 24.325L45.8938 17.325C45.7644 17.1584 45.5991 17.0232 45.4102 16.9294C45.2213 16.8357 45.0136 16.7858 44.8027 16.7836ZM25.1563 16.7863C24.9526 16.7942 24.7531 16.8466 24.5717 16.9396C24.3904 17.0327 24.2315 17.1642 24.1063 17.325L18.5063 24.325C18.3075 24.5733 18.1992 24.8819 18.1992 25.2C18.1992 25.5181 18.3075 25.8267 18.5063 26.075L24.1063 33.075C24.2211 33.2187 24.3632 33.3383 24.5243 33.4271C24.6855 33.5159 24.8625 33.572 25.0454 33.5924C25.2282 33.6127 25.4133 33.5968 25.59 33.5456C25.7667 33.4945 25.9316 33.409 26.0752 33.294C26.2189 33.1791 26.3385 33.037 26.4272 32.8758C26.516 32.7147 26.5721 32.5376 26.5924 32.3548C26.6127 32.1719 26.5967 31.9869 26.5455 31.8102C26.4943 31.6335 26.4087 31.4686 26.2938 31.325L21.3938 25.2L26.2938 19.075C26.4654 18.8664 26.5731 18.6125 26.6037 18.3441C26.6343 18.0757 26.5867 17.8041 26.4664 17.5621C26.3462 17.3202 26.1585 17.1182 25.926 16.9806C25.6935 16.8429 25.4262 16.7754 25.1563 16.7863ZM58.8 44.8C59.5728 44.8 60.2 45.4272 60.2 46.2C60.2 46.9728 59.5728 47.6 58.8 47.6C58.0272 47.6 57.4 46.9728 57.4 46.2C57.4 45.4272 58.0272 44.8 58.8 44.8ZM26.6 54.6V57.4H22.4C20.0802 57.4 18.2 59.2802 18.2 61.6V63C18.2 63.7728 18.8272 64.4 19.6 64.4H50.4C51.1728 64.4 51.8 63.7728 51.8 63V61.6C51.8 59.2802 49.9198 57.4 47.6 57.4H43.4V54.6H26.6Z" fill="#0C78AB"/>
</svg>
