<svg width="96" height="96" viewBox="0 0 96 96" fill="none" xmlns="http://www.w3.org/2000/svg">
<path d="M8 76V30H88V76C88 78.2 86.2 80 84 80H12C9.8 80 8 78.2 8 76Z" fill="url(#paint0_linear_13_392)" fill-opacity="0.5"/>
<path d="M79 46H53C52.448 46 52 45.552 52 45V43C52 42.448 52.448 42 53 42H79C79.552 42 80 42.448 80 43V45C80 45.552 79.552 46 79 46Z" fill="#0D86AD" fill-opacity="0.5"/>
<path d="M79 54H53C52.448 54 52 53.552 52 53V51C52 50.448 52.448 50 53 50H79C79.552 50 80 50.448 80 51V53C80 53.552 79.552 54 79 54Z" fill="#0D86AD" fill-opacity="0.5"/>
<path d="M79 62H53C52.448 62 52 61.552 52 61V59C52 58.448 52.448 58 53 58H79C79.552 58 80 58.448 80 59V61C80 61.552 79.552 62 79 62Z" fill="#0D86AD" fill-opacity="0.5"/>
<path d="M73 70H53C52.448 70 52 69.552 52 69V67C52 66.448 52.448 66 53 66H73C73.552 66 74 66.448 74 67V69C74 69.552 73.552 70 73 70Z" fill="#0D86AD" fill-opacity="0.5"/>
<path d="M88 20V30H8V20C8 17.8 9.8 16 12 16H84C86.2 16 88 17.8 88 20Z" fill="url(#paint1_linear_13_392)" fill-opacity="0.5"/>
<path d="M33 26H83C83.552 26 84 25.552 84 25V21C84 20.448 83.552 20 83 20H33C32.448 20 32 20.448 32 21V25C32 25.552 32.448 26 33 26Z" fill="url(#paint2_linear_13_392)" fill-opacity="0.5"/>
<path d="M15 26C16.6569 26 18 24.6569 18 23C18 21.3431 16.6569 20 15 20C13.3431 20 12 21.3431 12 23C12 24.6569 13.3431 26 15 26Z" fill="url(#paint3_linear_13_392)" fill-opacity="0.5"/>
<path d="M25 26C26.6569 26 28 24.6569 28 23C28 21.3431 26.6569 20 25 20C23.3431 20 22 21.3431 22 23C22 24.6569 23.3431 26 25 26Z" fill="url(#paint4_linear_13_392)" fill-opacity="0.5"/>
<path d="M42.444 42H17.556C16.696 42 16 42.696 16 43.556V68.444C16 69.304 16.696 70 17.556 70H42.444C43.304 70 44 69.304 44 68.444V43.556C44 42.696 43.304 42 42.444 42Z" fill="url(#paint5_radial_13_392)" fill-opacity="0.5"/>
<path d="M36.272 55.2721C35.378 54.3781 33.936 54.3581 33.018 55.2281L25.334 62.5081V70.0001H42.446C43.304 70.0001 44 69.3041 44 68.4441V63.0001L36.272 55.2721Z" fill="#436DCD" fill-opacity="0.5"/>
<path d="M38 50C39.1046 50 40 49.1046 40 48C40 46.8954 39.1046 46 38 46C36.8954 46 36 46.8954 36 48C36 49.1046 36.8954 50 38 50Z" fill="white" fill-opacity="0.5"/>
<path d="M17.556 70H42.444C43.076 70 43.616 69.622 43.86 69.082L26.94 52.162C26.046 51.268 24.604 51.248 23.686 52.118L16 59.398V68.444C16 69.304 16.696 70 17.556 70Z" fill="url(#paint6_linear_13_392)" fill-opacity="0.5"/>
<defs>
<linearGradient id="paint0_linear_13_392" x1="26.96" y1="23.186" x2="63.268" y2="75.706" gradientUnits="userSpaceOnUse">
<stop stop-color="#7DD8F3"/>
<stop offset="1" stop-color="#45B0D0"/>
</linearGradient>
<linearGradient id="paint1_linear_13_392" x1="9.228" y1="15.482" x2="85.872" y2="31.066" gradientUnits="userSpaceOnUse">
<stop stop-color="#0077D2"/>
<stop offset="1" stop-color="#0B59A2"/>
</linearGradient>
<linearGradient id="paint2_linear_13_392" x1="32" y1="23" x2="84" y2="23" gradientUnits="userSpaceOnUse">
<stop stop-color="#7DD8F3"/>
<stop offset="1" stop-color="#45B0D0"/>
</linearGradient>
<linearGradient id="paint3_linear_13_392" x1="13.502" y1="20.832" x2="16.064" y2="24.538" gradientUnits="userSpaceOnUse">
<stop stop-color="#75DAFF"/>
<stop offset="1" stop-color="#49BEF1"/>
</linearGradient>
<linearGradient id="paint4_linear_13_392" x1="23.502" y1="20.832" x2="26.064" y2="24.538" gradientUnits="userSpaceOnUse">
<stop stop-color="#75DAFF"/>
<stop offset="1" stop-color="#49BEF1"/>
</linearGradient>
<radialGradient id="paint5_radial_13_392" cx="0" cy="0" r="1" gradientUnits="userSpaceOnUse" gradientTransform="translate(49.038 65.704) scale(17.844)">
<stop stop-color="#BA84F5"/>
<stop offset="0.129" stop-color="#B584F3"/>
<stop offset="0.291" stop-color="#A585EE"/>
<stop offset="0.47" stop-color="#8C87E6"/>
<stop offset="0.662" stop-color="#6889DB"/>
<stop offset="0.862" stop-color="#3B8BCD"/>
<stop offset="1" stop-color="#178DC2"/>
</radialGradient>
<linearGradient id="paint6_linear_13_392" x1="29.93" y1="51.436" x2="29.93" y2="70.322" gradientUnits="userSpaceOnUse">
<stop stop-color="#124787"/>
<stop offset="0.923" stop-color="#173B75"/>
<stop offset="1" stop-color="#173A73"/>
</linearGradient>
</defs>
</svg>
