<svg width="21" height="22" viewBox="0 0 21 22" fill="none" xmlns="http://www.w3.org/2000/svg">
<g clip-path="url(#clip0_8542_889)">
<g clip-path="url(#clip1_8542_889)">
<path d="M7.65025 7.85327L12.527 5.95871L20.2104 12.0283L15.2636 13.895L7.65025 7.85327Z" fill="#0C6998"/>
<path d="M20.2104 12.0283L15.2636 13.8955L19.4613 11.4365L20.2104 12.0283Z" fill="#124B68"/>
<path d="M19.4146 16.6441L20.2104 12.0283L5.89604 17.4313L9.26625 20.4865C9.50163 20.6999 9.83708 20.7626 10.1337 20.6487L18.8867 17.2871C19.1637 17.1807 19.3642 16.9364 19.4146 16.6441Z" fill="#0C78AB"/>
<path d="M12.9479 13.5371L8.07117 15.4317L0.387695 9.36207L5.33459 7.49536L12.9479 13.5371Z" fill="#C59B2D"/>
<path d="M0.387695 9.36208L5.33459 7.49487L1.13681 9.95385L0.387695 9.36208Z" fill="#885920"/>
<path d="M1.18352 4.74631L0.387695 9.36208L14.7021 3.95909L11.3319 0.903851C11.0965 0.690465 10.7611 0.627736 10.4645 0.741643L1.71141 4.10333C1.43446 4.20969 1.23392 4.45395 1.18352 4.74631Z" fill="#AA7A24"/>
</g>
</g>
<defs>
<clipPath id="clip0_8542_889">
<rect width="20.4228" height="21.1522" fill="white"/>
</clipPath>
<clipPath id="clip1_8542_889">
<rect width="20.4228" height="21.1522" fill="white"/>
</clipPath>
</defs>
</svg>
